<?xml version="1.0" encoding="UTF-8"?>
<svg version="1.1" xmlns="http://www.w3.org/2000/svg" width="512" height="512">
<path d="M0 0 C0.96794978 -0.00579339 1.93589957 -0.01158677 2.93318117 -0.01755571 C6.19734171 -0.03568507 9.46148486 -0.0465073 12.72567749 -0.05725098 C15.05779175 -0.06842138 17.38990439 -0.07993454 19.72201538 -0.09176636 C27.39948276 -0.12838245 35.07696678 -0.15355052 42.75448608 -0.1763916 C44.05963653 -0.18033747 45.36478698 -0.18428333 46.70948744 -0.18834877 C59.01355419 -0.22476996 71.3176259 -0.25637623 83.6217289 -0.27745819 C86.4724593 -0.28242751 89.32318956 -0.28747182 92.17391968 -0.29260254 C92.88245651 -0.29387321 93.59099334 -0.29514388 94.32100098 -0.29645306 C105.79369745 -0.31780398 117.2661071 -0.36678883 128.73865934 -0.42684668 C140.51800758 -0.48800181 152.29720799 -0.52265106 164.07671297 -0.5319314 C170.69019535 -0.53783921 177.30324623 -0.55637814 183.91658401 -0.60331726 C190.13998756 -0.64694052 196.36257495 -0.65748471 202.58610535 -0.64268875 C204.86938781 -0.64301779 207.15270497 -0.65532423 209.43584824 -0.68053818 C212.5562017 -0.71317671 215.6735607 -0.70250133 218.79394531 -0.68115234 C219.69532404 -0.70086011 220.59670276 -0.72056788 221.52539599 -0.74087286 C227.67289294 -0.63483241 230.71149807 1.07461077 235.07718027 5.3805995 C235.91904821 6.26504515 235.91904821 6.26504515 236.77792358 7.1673584 C237.804066 8.14532532 238.83327368 9.12010471 239.86776733 10.0892334 C240.82107366 11.027808 241.770264 11.97058039 242.71542358 12.9173584 C243.4849939 13.68813721 243.4849939 13.68813721 244.27011108 14.4744873 C248.26879999 18.53674639 251.90662629 22.8134386 255.44979858 27.28063965 C257.11429668 29.34450558 258.7925557 31.34834654 260.54354858 33.33532715 C315.20529653 95.36689285 349.01496115 176.79218503 361.52792358 257.9173584 C361.72668091 259.19377197 361.92543823 260.47018555 362.13021851 261.78527832 C364.93088998 280.79695178 366.07970025 299.77377622 366.08432007 318.97644043 C366.09197018 321.04066253 366.10040237 323.10488186 366.10954285 325.1690979 C366.13117595 330.69269465 366.14024035 336.21623627 366.14536929 341.73987055 C366.14904116 345.19760807 366.15529451 348.65533168 366.16237068 352.11306381 C366.18672701 364.19187799 366.19989323 376.27064984 366.20346069 388.3494873 C366.20711645 399.59200998 366.23719197 410.83426317 366.27886528 422.07670319 C366.31350728 431.76294929 366.32900783 441.44910539 366.32970673 451.13541305 C366.33049963 456.9072445 366.3392507 462.67879826 366.36770439 468.45056534 C366.39379015 473.85995729 366.39614356 479.26883871 366.38004875 484.67826462 C366.37822849 486.66286581 366.38497674 488.64749589 366.40086746 490.6320343 C366.42122013 493.33811443 366.41084196 496.04238803 366.39265442 498.7484436 C366.40585439 499.53528978 366.41905435 500.32213597 366.43265432 501.13282597 C366.375699 504.83503707 365.99727728 506.87287418 363.76669651 509.86744809 C359.95145843 512.80333703 356.96044255 512.86500519 352.33673096 512.7965641 C351.48489613 512.80383131 350.6330613 512.81109851 349.75541329 512.81858593 C346.88730907 512.83690322 344.02053083 512.81944942 341.1524353 512.80227661 C339.08102673 512.80803513 337.00962325 512.81597443 334.93823051 512.82591283 C329.23545201 512.84684619 323.53309016 512.83644136 317.83030987 512.82098174 C311.68433959 512.80969874 305.53844246 512.82711578 299.39248657 512.84088135 C288.04492126 512.86186292 276.69752639 512.85999798 265.34996527 512.84632401 C254.8675834 512.83375435 244.38525041 512.83045891 233.90286255 512.83643723 C232.86054741 512.83701011 232.86054741 512.83701011 231.79717539 512.83759458 C228.97656059 512.83915123 226.15594582 512.84074322 223.33533107 512.84239339 C196.86690137 512.85769406 170.39855659 512.84381214 143.93013999 512.81690891 C120.40604839 512.79318022 96.88209212 512.79530334 73.35800171 512.81921387 C46.9384993 512.84597751 20.51907196 512.85660902 -5.90044212 512.84115255 C-8.71596653 512.83954892 -11.53149095 512.83798472 -14.34701538 512.83643723 C-15.38692327 512.83584415 -15.38692327 512.83584415 -16.44783939 512.83523908 C-26.92454655 512.82954777 -37.40119951 512.83621042 -47.87789917 512.84883499 C-59.78844504 512.86311566 -71.69883106 512.85910822 -83.60937071 512.83243127 C-89.68996728 512.81926237 -95.77028875 512.8141932 -101.85088348 512.83067703 C-107.41227651 512.8455257 -112.97313822 512.83747223 -118.53448272 512.81078927 C-120.55122721 512.80518272 -122.56801616 512.80809307 -124.58473229 512.82016821 C-127.31742919 512.835281 -130.04828455 512.81987655 -132.78088379 512.7965641 C-133.57170089 512.80826993 -134.362518 512.81997576 -135.17729926 512.83203632 C-139.15006402 512.76386997 -141.02602942 512.31824476 -144.21067476 509.8672021 C-146.9190698 506.23180522 -146.91300587 503.11938803 -146.84353638 498.75758362 C-146.8499252 497.91284892 -146.85631402 497.06811422 -146.86289644 496.1977815 C-146.87815602 493.36692725 -146.8576771 490.53747058 -146.83731079 487.70666504 C-146.84081235 485.67580705 -146.84647133 483.64495181 -146.85412598 481.61410522 C-146.86840104 476.08965463 -146.8512714 470.56570042 -146.82784081 465.0412972 C-146.8077014 459.235048 -146.81361416 453.42881888 -146.81594849 447.62254333 C-146.81589484 437.84467436 -146.79611951 428.06699808 -146.7640686 418.28918457 C-146.72743037 407.05894546 -146.71835688 395.82896113 -146.72536612 384.59867007 C-146.73173076 373.74220792 -146.7207914 362.88583134 -146.70140076 352.02938652 C-146.69332295 347.44050289 -146.6904993 342.85166362 -146.6920929 338.26277351 C-146.69334938 314.05435741 -146.46715055 290.19380908 -143.22207642 266.1673584 C-143.11266315 265.3354599 -143.00324987 264.5035614 -142.89052105 263.64645386 C-142.33599609 259.46926512 -141.70048642 255.31775498 -140.97207642 251.1673584 C-140.7615564 249.94774414 -140.55103638 248.72812988 -140.33413696 247.47155762 C-130.63916077 192.99967625 -111.51366772 140.73785748 -83.22207642 93.1673584 C-82.75736938 92.37474609 -82.29266235 91.58213379 -81.81387329 90.76550293 C-67.72979307 66.76683817 -51.08050014 44.05204585 -32.32754517 23.49157715 C-30.48230086 21.45461915 -28.69125972 19.38464993 -26.90957642 17.2923584 C-23.71892917 13.62762913 -20.33562535 10.17267927 -16.90957642 6.7298584 C-16.38130249 6.19699219 -15.85302856 5.66412598 -15.30874634 5.1151123 C-10.18272568 0.00977777 -7.0400171 0.01432993 0 0 Z M25.77792358 95.1673584 C22.75394375 100.57305687 20.8724869 105.94248117 21.77792358 112.1673584 C24.1409517 119.12382382 27.08415096 124.93411746 33.77792358 128.4173584 C38.36894347 130.60526631 42.27299206 131.29247273 47.36146545 131.30780029 C48.49828262 131.31351044 49.63509979 131.31922058 50.80636597 131.32510376 C52.0495459 131.32622162 53.29272583 131.32733948 54.57357788 131.32849121 C55.88619095 131.33345612 57.19880402 131.33842102 58.55119324 131.34353638 C62.15061893 131.35664019 65.75002599 131.3631017 69.34947181 131.36754704 C71.60089667 131.37048177 73.85231647 131.3745874 76.10373878 131.37905121 C83.15543585 131.39272249 90.20712133 131.40239025 97.25883073 131.4062531 C105.38463674 131.41072934 113.51027417 131.42825853 121.63602895 131.45725369 C127.92579828 131.47891409 134.21552035 131.48895974 140.50532657 131.49029422 C144.25760658 131.49133938 148.00972804 131.49718497 151.76196861 131.51511383 C155.29557341 131.53166955 158.82890175 131.53371402 162.36253166 131.52497482 C164.26565446 131.52384505 166.16876839 131.53750545 168.07183838 131.55172729 C176.09817799 131.51288875 183.50354978 130.89423963 190.09042358 125.9173584 C194.97476781 120.91942477 197.49220038 115.88176 198.02792358 108.9173584 C197.58220427 102.23156872 195.35270391 96.70018982 190.68299675 91.8138361 C183.41680996 85.53396468 174.20917048 85.59474794 165.10165405 85.66564941 C163.75356484 85.66185806 162.40547954 85.65635134 161.05740356 85.64927673 C157.42517453 85.63541355 153.79342403 85.64642549 150.16122198 85.66298795 C146.34531197 85.67692511 142.52942731 85.67036878 138.71350098 85.66685486 C132.30993005 85.66416019 125.90654736 85.67756625 119.50302124 85.70080566 C112.11498535 85.72743354 104.72726355 85.72915254 97.33919609 85.7174173 C90.20898121 85.70661524 83.07887919 85.71284412 75.94867325 85.72697258 C72.92413773 85.73270908 69.89968544 85.73266826 66.87514877 85.72790718 C63.31104728 85.72311287 59.74728709 85.73333965 56.18325043 85.75486183 C54.26213712 85.7630222 52.34097894 85.75660547 50.41986084 85.74966431 C40.70988079 85.83273753 32.26311344 87.31945777 25.77792358 95.1673584 Z " fill="#033D88" transform="translate(146.22207641601563,-0.1673583984375)"/>
<path d="M0 0 C19.27152509 -0.21047539 38.54281616 -0.36906295 57.81525326 -0.46630955 C66.76435258 -0.51266837 75.71273675 -0.57584196 84.66137695 -0.67895508 C92.46335402 -0.76881242 100.26481306 -0.82675945 108.06729323 -0.84679645 C112.19692705 -0.85850523 116.32507929 -0.88591183 120.45423698 -0.95157051 C124.34611133 -1.01295102 128.23590336 -1.03144861 132.12821579 -1.01796913 C133.55166406 -1.02043253 134.97518645 -1.03816984 136.39821434 -1.07284927 C147.10295376 -1.32079116 147.10295376 -1.32079116 151.79025459 1.94267464 C154.06536454 4.18892472 156.0444574 6.47449071 158 9 C159.09734444 10.23526107 160.20027902 11.46561653 161.3125 12.6875 C162.5426844 14.12412914 163.77170226 15.56175746 165 17 C165.88069461 18.00592317 166.76227731 19.01106919 167.64453125 20.015625 C175.52232801 29.03161848 182.82931649 38.41582427 190 48 C190.48355957 48.6408252 190.96711914 49.28165039 191.46533203 49.94189453 C203.14144395 65.42534657 213.23978401 81.68978144 222.67333984 98.62548828 C223.80625288 100.65322333 224.95598138 102.66974527 226.11328125 104.68359375 C240.94812728 131.25117515 251.19885173 160.77744865 258.33691406 190.27246094 C258.98520173 192.93912876 259.65793387 195.59856477 260.3359375 198.2578125 C269.989492 236.64054774 273.41321239 277.13343178 274.54296875 316.60546875 C274.56437298 317.34512627 274.58577721 318.08478378 274.60783005 318.84685516 C275.15188102 338.18324707 275.15562701 357.52008688 275.12857056 376.86268997 C275.12495199 379.7888219 275.12337137 382.71494886 275.12231445 385.64108276 C275.10938301 414.44437956 274.80264044 443.20527417 274 472 C243.31 472 212.62 472 181 472 C184.43724021 449.08506528 184.43724021 449.08506528 185.9453125 441.33984375 C186.2989948 439.48217848 186.65267301 437.62451243 187.00634766 435.7668457 C187.18836731 434.81879059 187.37038696 433.87073547 187.55792236 432.89395142 C191.07436394 414.56103187 194.41165978 396.20077608 197.625 377.8125 C200.32480358 362.37789545 203.07961465 346.95703632 206 331.5625 C206.14802063 330.78065338 206.29604126 329.99880676 206.44854736 329.19326782 C208.97080372 315.89495484 208.97080372 315.89495484 210 312 C210.73605469 311.97421875 211.47210938 311.9484375 212.23046875 311.921875 C219.94418163 311.5307505 219.94418163 311.5307505 226 307 C229.75948777 299.48102446 225.54115786 289.03572263 223.5703125 281.48046875 C223.21557229 280.0906447 222.86165381 278.70061069 222.5085144 277.31037903 C221.77025006 274.4132677 221.02493971 271.51809953 220.27392578 268.62426758 C219.31288477 264.9204298 218.3654441 261.21328453 217.42268562 257.50475597 C216.69388455 254.64101573 215.96013707 251.77856268 215.2246666 248.9165287 C214.87360981 247.549676 214.52357479 246.18256044 214.17459488 244.81517601 C213.68635948 242.90707041 213.19122855 241.00073322 212.69580078 239.09448242 C212.41600372 238.01132248 212.13620667 236.92816254 211.84793091 235.81217957 C210.79616927 232.22469187 210.79616927 232.22469187 209 229 C204.85088958 226.84127819 200.94808164 226.71018265 196.37109375 226.72584534 C195.61080872 226.72060866 194.85052368 226.71537198 194.06719971 226.70997661 C191.52391299 226.69499488 188.98082779 226.69427188 186.4375 226.69360352 C184.61238262 226.685981 182.78726845 226.67755334 180.9621582 226.66838074 C176.00772491 226.64644271 171.05335333 226.63763819 166.09887695 226.63255429 C163.00406156 226.62891103 159.90926235 226.62267124 156.81445312 226.6155529 C146.01952402 226.59106443 135.22464296 226.57800703 124.4296875 226.57446289 C114.36336243 226.57082426 104.29734163 226.54090388 94.23110962 226.49905831 C85.58980257 226.46439384 76.94859659 226.44891515 68.30722046 226.44821686 C63.14544152 226.44742297 57.98397279 226.4386325 52.82226562 226.41021919 C47.9695801 226.3841032 43.11746352 226.38179704 38.26473999 226.39787483 C36.48333499 226.39969427 34.70189773 226.3929541 32.92056274 226.37705612 C30.48933279 226.3566795 28.0601095 226.36709552 25.62890625 226.38526917 C24.92316467 226.3720692 24.2174231 226.35886923 23.49029541 226.34526926 C17.7192278 226.44388264 17.59834876 227.40165124 13 232 C9.37 246.19 5.74 260.38 2 275 C-31.66 275 -65.32 275 -100 275 C-94.21084117 240.26504705 -94.21084117 240.26504705 -90.67993164 225.51879883 C-90.05443231 222.90377139 -89.44521257 220.28531846 -88.83789062 217.66601562 C-84.57225801 199.4502497 -79.295614 181.53045654 -73.6875 163.6875 C-73.45621399 162.94928009 -73.22492798 162.21106018 -72.9866333 161.45046997 C-63.28117891 130.56235782 -63.28117891 130.56235782 -58 120 C-53.54523248 121.63998521 -49.91124746 123.92521179 -45.98828125 126.5625 C-37.50231554 130.64463775 -28.05627735 130.29699681 -18.83642578 130.29052734 C-17.43571621 130.2965243 -16.03500992 130.3033325 -14.63430786 130.31088257 C-10.85733728 130.32842823 -7.08045751 130.33323299 -3.30345011 130.33451414 C-0.93705094 130.33594249 1.42932563 130.34022487 3.79571915 130.34550858 C12.07004495 130.36396899 20.34430663 130.37218395 28.61865234 130.37060547 C36.30201117 130.36940422 43.98508904 130.39051339 51.6683768 130.4220928 C58.29122978 130.4483328 64.91399138 130.45896959 71.53689587 130.45769465 C75.48092445 130.45718741 79.42470279 130.46273821 83.36867905 130.48405075 C87.08055312 130.50356498 90.79194151 130.50346894 94.50383377 130.48901749 C96.49578486 130.48596526 98.48773671 130.50251176 100.47961426 130.51989746 C113.99459781 130.42648186 125.31311381 126.67187274 135 117.00390625 C143.28749678 107.26966973 145.94392882 96.37470985 145.3515625 83.88671875 C144.91905399 79.10509691 144.16324932 75.27733388 142 71 C141.5978125 70.18273437 141.195625 69.36546875 140.78125 68.5234375 C135.47702122 58.76955013 127.44922238 51.82940252 117 48 C109.54276481 45.98001386 102.56459982 45.69499749 94.86108398 45.68115234 C93.57229843 45.67110672 92.28351288 45.6610611 90.95567322 45.65071106 C87.44806596 45.62358762 83.94049847 45.60831456 80.43281436 45.59528303 C76.75725201 45.57957454 73.08176994 45.55280924 69.40626526 45.5272522 C62.45798259 45.48060029 55.50968458 45.44379076 48.56132609 45.41057932 C40.64586146 45.37226148 32.73047774 45.32287687 24.81508148 45.27259517 C8.54344589 45.1694776 -7.72823473 45.08015209 -24 45 C-22.74833965 42.30623903 -21.49311262 39.61423602 -20.23583984 36.9230957 C-19.71092201 35.79194714 -19.71092201 35.79194714 -19.17539978 34.63794708 C-16.0286488 27.91478515 -12.45062702 21.55104299 -8.625 15.1875 C-7.40791167 13.13988284 -6.19172587 11.09172887 -4.9765625 9.04296875 C-4.45143066 8.16664795 -3.92629883 7.29032715 -3.38525391 6.38745117 C-2.16813016 4.28976821 -1.07266441 2.17344366 0 0 Z " fill="#FDE5C9" transform="translate(218,20)"/>
<path d="M0 0 C0.71244873 -0.00043808 1.42489746 -0.00087616 2.15893555 -0.00132751 C4.5128931 0.00076187 6.86613764 0.02409903 9.2199707 0.04760742 C10.85235708 0.05320287 12.4847485 0.05747321 14.11714172 0.06047058 C18.41299353 0.07192347 22.70854091 0.1013943 27.00427246 0.13458252 C31.38797894 0.16527393 35.77173462 0.17897392 40.15551758 0.1940918 C48.75656872 0.22626373 57.35737246 0.27746524 65.95825195 0.34057617 C64.3908964 4.36467477 62.5455617 8.04656968 60.4387207 11.82104492 C60.09827225 12.43393875 59.75782379 13.04683258 59.40705872 13.67829895 C58.32274702 15.62979352 57.23462412 17.57912304 56.14575195 19.52807617 C55.06787226 21.45932785 53.99095358 23.39109035 52.9165802 25.32429504 C51.93425694 27.09162975 50.94867539 28.8571523 49.96289062 30.62255859 C48.34577496 33.57061643 46.83206323 36.56325828 45.33296204 39.57295227 C44.88698827 40.46752797 44.4410145 41.36210367 43.98152637 42.28378773 C43.64384582 42.96252791 43.30616526 43.6412681 42.95825195 44.34057617 C43.95575077 44.3441587 43.95575077 44.3441587 44.97340107 44.34781361 C61.19209548 44.40707989 77.41062407 44.48270378 93.62915516 44.57629108 C101.47248295 44.62116017 109.31576624 44.66059506 117.15917969 44.68701172 C123.99952512 44.71006408 130.83972866 44.74354215 137.67996138 44.78927773 C141.29818044 44.81311295 144.9162598 44.83190496 148.53455544 44.83819008 C152.58459926 44.84542127 156.63416016 44.87593969 160.68408203 44.90820312 C161.86948074 44.90676804 163.05487946 44.90533295 164.27619934 44.90385437 C177.41660306 45.05130374 189.93966003 48.42929491 199.77075195 57.59057617 C209.25973671 67.92150922 212.86474411 79.22674166 212.3684082 93.04370117 C211.56892714 104.32164717 205.97214355 113.70745238 197.8605957 121.30541992 C190.10427983 127.77585627 181.18598748 131.45808211 171.07772827 131.47428894 C169.27370041 131.48068642 169.27370041 131.48068642 167.43322754 131.48721313 C166.11681274 131.48675995 164.80039795 131.48630676 163.4440918 131.48583984 C162.04102489 131.48883274 160.6379588 131.49223557 159.2348938 131.49601746 C155.42465898 131.5048517 151.61444663 131.50719542 147.80420256 131.50783324 C145.42077241 131.50854445 143.03734795 131.51068018 140.65391922 131.51333046 C132.33006682 131.52258428 124.00623042 131.52666559 115.68237305 131.52587891 C107.93897583 131.52527916 100.19564851 131.53581064 92.45226896 131.55162257 C85.79390969 131.5647314 79.13557316 131.57006135 72.4772011 131.5694235 C68.50527721 131.56916935 64.53341534 131.57197394 60.56150436 131.58260155 C56.82028523 131.59233808 53.07918668 131.59232395 49.3379631 131.58508492 C47.32411866 131.58355339 45.31027409 131.59184824 43.29644775 131.6005249 C33.56364186 131.56705163 24.93455763 131.11456858 16.52075195 125.84057617 C15.53204102 125.23213867 14.54333008 124.62370117 13.5246582 123.99682617 C11.65942032 122.79308057 9.80535036 121.57197511 7.95825195 120.34057617 C7.79607178 120.91163086 7.6338916 121.48268555 7.46679688 122.07104492 C5.36811881 129.27715069 2.84582722 136.29326125 0.27075195 143.34057617 C-10.84394776 174.20731468 -19.47224608 205.79051533 -26.41674805 237.84057617 C-26.58005615 238.59078033 -26.74336426 239.3409845 -26.91162109 240.11392212 C-28.89082914 249.25693161 -30.6295187 258.41136768 -32.0718689 267.65539551 C-32.9404901 273.13806027 -32.9404901 273.13806027 -34.04174805 275.34057617 C-37.27966686 275.6195494 -40.49583943 275.65607752 -43.74487305 275.70385742 C-48.04275159 276.53389795 -49.2327739 278.018536 -52.04174805 281.34057617 C-53.18230056 283.86005918 -54.09090278 286.18027294 -54.92456055 288.79370117 C-55.17691467 289.54230911 -55.4292688 290.29091705 -55.68927002 291.06221008 C-56.5296524 293.56707137 -57.34838639 296.07844208 -58.16674805 298.59057617 C-58.75747126 300.37085345 -59.34946487 302.15070961 -59.94262695 303.93017578 C-61.25136989 307.8621171 -62.5515076 311.79679804 -63.84838867 315.73266602 C-66.03206073 322.33808638 -68.27349705 328.92346323 -70.51945877 335.50788498 C-71.83988053 339.38395831 -73.1524868 343.26268354 -74.46462059 347.14156914 C-75.54467698 350.33348565 -76.62820206 353.52412566 -77.72003174 356.71203613 C-78.95088162 360.31487128 -80.16602516 363.92265587 -81.37768555 367.53198242 C-81.74887512 368.60748856 -82.1200647 369.68299469 -82.50250244 370.79109192 C-82.83820251 371.80072495 -83.17390259 372.81035797 -83.51977539 373.85058594 C-83.81508148 374.72175552 -84.11038757 375.59292511 -84.41464233 376.49049377 C-85.95507942 383.49150258 -84.87138132 389.01680651 -82.56323242 395.62084961 C-82.29988602 396.40563187 -82.03653961 397.19041412 -81.76521301 397.99897766 C-80.89966239 400.56984522 -80.01750598 403.13468861 -79.13549805 405.69995117 C-78.52892609 407.4945611 -77.92359836 409.28959201 -77.31945801 411.08502197 C-75.73169375 415.79527205 -74.13060359 420.50087027 -72.52557373 425.20526123 C-69.95382068 432.74757042 -67.39841353 440.29538657 -64.85066223 447.84583282 C-63.95892957 450.48015767 -63.05905446 453.11159877 -62.1583252 455.74285889 C-61.6120289 457.35443942 -61.06599415 458.96610864 -60.52026367 460.57788086 C-60.26779373 461.30834122 -60.01532379 462.03880157 -59.75520325 462.79139709 C-58.60916443 466.19893016 -58.04174805 468.69853046 -58.04174805 472.34057617 C-82.46174805 472.34057617 -106.88174805 472.34057617 -132.04174805 472.34057617 C-133.19144281 443.59820714 -133.19144281 443.59820714 -133.18701172 433.75439453 C-133.19037033 432.60555283 -133.19372894 431.45671112 -133.19718933 430.27305603 C-133.2064775 426.57549882 -133.20863142 422.87798798 -133.2097168 419.18041992 C-133.21212506 417.20531011 -133.21453632 415.23020029 -133.21717721 413.25509077 C-133.22522689 407.06117053 -133.22777057 400.86726473 -133.22705078 394.67333984 C-133.22652012 389.10332338 -133.23354485 383.53337745 -133.24755859 377.96337891 C-133.34416504 338.61501602 -133.42552764 299.28352647 -128.72924805 260.15307617 C-128.62159119 259.22462891 -128.51393433 258.29618164 -128.40301514 257.33959961 C-126.53394197 241.23261681 -124.32270879 225.22916919 -121.04174805 209.34057617 C-120.80794434 208.20475098 -120.57414062 207.06892578 -120.33325195 205.89868164 C-114.33871078 177.57773462 -105.23772658 149.6034742 -93.04174805 123.34057617 C-92.38045756 121.8723365 -91.72028798 120.40359143 -91.0612793 118.93432617 C-73.49213218 80.20592928 -48.01281134 45.08360615 -19.3347168 13.85229492 C-16.67818085 10.94232454 -14.0873544 7.98068968 -11.5144043 4.99682617 C-11.02842773 4.45026367 -10.54245117 3.90370117 -10.04174805 3.34057617 C-9.66161057 2.8184404 -9.28147308 2.29630463 -8.88981628 1.75834656 C-6.03399545 -0.43253478 -3.55441638 -0.01835327 0 0 Z M19.95825195 75.34057617 C16.93427212 80.74627464 15.05281526 86.11569894 15.95825195 92.34057617 C18.32128007 99.2970416 21.26447933 105.10733523 27.95825195 108.59057617 C32.54927184 110.77848409 36.45332043 111.4656905 41.54179382 111.48101807 C42.67861099 111.48672821 43.81542816 111.49243835 44.98669434 111.49832153 C46.22987427 111.49943939 47.4730542 111.50055725 48.75390625 111.50170898 C50.06651932 111.50667389 51.37913239 111.51163879 52.73152161 111.51675415 C56.3309473 111.52985796 59.93035436 111.53631947 63.52980018 111.54076481 C65.78122503 111.54369955 68.03264484 111.54780517 70.28406715 111.55226898 C77.33576422 111.56594026 84.3874497 111.57560802 91.4391591 111.57947087 C99.56496511 111.58394712 107.69060254 111.60147631 115.81635731 111.63047147 C122.10612665 111.65213187 128.39584872 111.66217752 134.68565494 111.66351199 C138.43793495 111.66455715 142.19005641 111.67040274 145.94229698 111.6883316 C149.47590177 111.70488732 153.00923012 111.70693179 156.54286003 111.6981926 C158.44598283 111.69706283 160.34909676 111.71072322 162.25216675 111.72494507 C170.27850636 111.68610653 177.68387815 111.0674574 184.27075195 106.09057617 C189.15509618 101.09264255 191.67252875 96.05497778 192.20825195 89.09057617 C191.76253264 82.4047865 189.53303228 76.87340759 184.86332512 71.98705387 C177.59713832 65.70718246 168.38949885 65.76796571 159.28198242 65.83886719 C157.93389321 65.83507584 156.58580791 65.82956911 155.23773193 65.82249451 C151.6055029 65.80863132 147.97375239 65.81964326 144.34155035 65.83620572 C140.52564034 65.85014288 136.70975568 65.84358656 132.89382935 65.84007263 C126.49025842 65.83737797 120.08687573 65.85078403 113.68334961 65.87402344 C106.29531372 65.90065131 98.90759192 65.90237031 91.51952446 65.89063507 C84.38930958 65.87983301 77.25920756 65.8860619 70.12900162 65.90019035 C67.1044661 65.90592686 64.0800138 65.90588603 61.05547714 65.90112495 C57.49137565 65.89633064 53.92761546 65.90655742 50.3635788 65.92807961 C48.44246548 65.93623997 46.52130731 65.92982324 44.60018921 65.92288208 C34.89020916 66.0059553 26.44344181 67.49267554 19.95825195 75.34057617 Z " fill="#F8BD86" transform="translate(152.041748046875,19.659423828125)"/>
<path d="M0 0 C51.48 0 102.96 0 156 0 C153.07879964 17.52720215 150.15624781 35.03236019 146.95245361 52.50698853 C146.71813881 53.7865102 146.48382401 55.06603188 146.24240875 56.38432693 C146.06380483 57.35889807 146.06380483 57.35889807 145.88159275 58.35315752 C145.2519292 61.79150084 144.62478191 65.23030336 143.99725342 68.66903687 C142.950111 74.40513662 141.90120208 80.14091094 140.85107422 85.87646484 C139.63943514 92.49424371 138.4304117 99.11249643 137.22276711 105.73100531 C136.04988711 112.15880387 134.87552477 118.58633065 133.70037079 125.01371384 C133.203955 127.72884821 132.70799916 130.44406598 132.21240997 133.15935135 C131.52499386 136.92504087 130.83537721 140.69032551 130.14550781 144.45556641 C129.94189133 145.57224701 129.73827484 146.68892761 129.52848816 147.83944702 C129.34081375 148.86177429 129.15313934 149.88410156 128.95977783 150.93740845 C128.79758381 151.82392405 128.63538979 152.71043964 128.46828079 153.62381935 C128.0465725 155.76367883 127.52897439 157.88410242 127 160 C94.33 160 61.66 160 28 160 C26.68 151.75 25.36 143.5 24 135 C22.80880953 128.49969868 21.61116611 122.00475028 20.36636353 115.5151062 C16.64639862 96.10401818 13.14310146 76.65957481 9.74578857 57.18969727 C7.21812525 42.71430562 4.59542429 28.26675216 1.67504883 13.86499023 C1.45099365 12.74680908 1.22693848 11.62862793 0.99609375 10.4765625 C0.80200928 9.52861816 0.6079248 8.58067383 0.40795898 7.60400391 C0 5 0 5 0 0 Z " fill="#FEFEFE" transform="translate(252,332)"/>
<path d="M0 0 C51.81 0 103.62 0 157 0 C159.97 16.83 162.94 33.66 166 51 C167.98 61.89 167.98 61.89 170 73 C170 74.65 170 76.3 170 78 C122.15 78 74.3 78 25 78 C20.38 63.81 15.76 49.62 11 35 C5.912056 19.78071486 5.912056 19.78071486 0.78759766 4.57397461 C0 2 0 2 0 0 Z " fill="#FDD261" transform="translate(90,414)"/>
<path d="M0 0 C32.67 0 65.34 0 99 0 C99 2.97 99 5.94 99 9 C100.65883377 12.89825936 102.12980752 14.43445339 106 16 C108.81496741 16.45275278 108.81496741 16.45275278 111.75 16.625 C112.73484375 16.69976562 113.7196875 16.77453125 114.734375 16.8515625 C115.48203125 16.90054687 116.2296875 16.94953125 117 17 C118.28697942 24.19779537 119.57357943 31.39565844 120.85970211 38.59360695 C121.45698322 41.93629836 122.05439242 45.27896678 122.65209961 48.62158203 C123.34006795 52.4690064 124.02746972 56.3165319 124.71484375 60.1640625 C124.92842026 61.35802643 125.14199677 62.55199036 125.36204529 63.78213501 C125.56217728 64.90284393 125.76230927 66.02355286 125.96850586 67.17822266 C126.14393417 68.15973297 126.31936249 69.14124329 126.50010681 70.15249634 C127.01732503 73.09868726 127.5082421 76.04945263 128 79 C77.51 79 27.02 79 -25 79 C-24.2625003 73.83750207 -23.3370049 69.44933836 -21.68334961 64.59594727 C-21.44533662 63.88142615 -21.20732363 63.16690504 -20.96209812 62.43073177 C-20.19776936 60.14070773 -19.4252629 57.85354324 -18.65234375 55.56640625 C-18.1762529 54.14402202 -17.7007054 52.72145581 -17.22570801 51.29870605 C-15.46954334 46.05110029 -13.70289721 40.80700696 -11.9375 35.5625 C-7.998125 23.826875 -4.05875 12.09125 0 0 Z " fill="#FAD061" transform="translate(115,315)"/>
<path d="M0 0 C1.2489505 -0.00708481 2.497901 -0.01416962 3.78469849 -0.02146912 C5.15596045 -0.01917562 6.52722206 -0.01666596 7.89848328 -0.01396179 C9.35272991 -0.01831239 10.80697425 -0.0234967 12.26121521 -0.02944946 C16.20144712 -0.04281524 20.14158297 -0.0434207 24.08183312 -0.04088616 C27.37683892 -0.03981453 30.67182544 -0.04470489 33.96682709 -0.04949158 C41.74467905 -0.060579 49.52248271 -0.06102888 57.30033875 -0.05497742 C65.30967844 -0.04894137 73.3188423 -0.06124098 81.328152 -0.08254749 C88.2166907 -0.10019505 95.1051736 -0.10615977 101.99373406 -0.10290974 C106.10255381 -0.10110132 110.2112482 -0.10368858 114.32004738 -0.11762428 C118.18692213 -0.13024902 122.05352408 -0.12821495 125.9203949 -0.11521339 C127.33405845 -0.1128579 128.74774148 -0.11554521 130.16138268 -0.12383652 C143.42020871 -0.19595239 154.15281564 2.32963084 164.13945007 11.52241516 C174.25774459 22.21122711 177.30674869 32.38052824 177.02226257 46.82319641 C176.43589924 58.15144405 170.7036905 67.62065981 162.58476257 75.22554016 C154.8284467 81.69597651 145.91015435 85.37820235 135.80189514 85.39440918 C133.99786728 85.40080666 133.99786728 85.40080666 132.15739441 85.40733337 C130.84097961 85.40688019 129.52456482 85.406427 128.16825867 85.40596008 C126.76519176 85.40895297 125.36212567 85.4123558 123.95906067 85.4161377 C120.14882585 85.42497194 116.3386135 85.42731566 112.52836943 85.42795348 C110.14493928 85.42866469 107.76151482 85.43080042 105.37808609 85.4334507 C97.05423369 85.44270452 88.73039729 85.44678583 80.40653992 85.44599915 C72.6631427 85.4453994 64.91981538 85.45593088 57.17643583 85.47174281 C50.51807656 85.48485164 43.85974003 85.49018159 37.20136797 85.48954374 C33.22944408 85.48928959 29.25758221 85.49209418 25.28567123 85.50272179 C21.5444521 85.51245832 17.80335355 85.51244419 14.06212997 85.50520515 C12.04828553 85.50367363 10.03444096 85.51196847 8.02061462 85.52064514 C-6.22846838 85.47163939 -17.31435258 82.87080628 -28.19258118 73.07319641 C-37.38659339 63.13736903 -39.92266813 50.74192165 -39.62617493 37.75288391 C-39.02822993 25.85849252 -32.90098577 17.33296274 -24.38008118 9.44819641 C-17.36836291 3.58927515 -9.20186495 0.01746577 0 0 Z M-15.31758118 29.26069641 C-18.34156101 34.66639488 -20.22301787 40.03581918 -19.31758118 46.26069641 C-16.95455306 53.21716184 -14.0113538 59.02745547 -7.31758118 62.51069641 C-2.72656129 64.69860432 1.1774873 65.38581074 6.26596069 65.40113831 C7.40277786 65.40684845 8.53959503 65.41255859 9.71086121 65.41844177 C10.95404114 65.41955963 12.19722107 65.42067749 13.47807312 65.42182922 C14.79068619 65.42679413 16.10329926 65.43175903 17.45568848 65.43687439 C21.05511417 65.4499782 24.65452123 65.45643971 28.25396705 65.46088505 C30.5053919 65.46381979 32.75681171 65.46792541 35.00823402 65.47238922 C42.05993109 65.4860605 49.11161657 65.49572826 56.16332597 65.49959111 C64.28913198 65.50406736 72.41476941 65.52159654 80.54052418 65.55059171 C86.83029352 65.57225211 93.12001559 65.58229776 99.40982181 65.58363223 C103.16210182 65.58467739 106.91422328 65.59052298 110.66646385 65.60845184 C114.20006864 65.62500756 117.73339699 65.62705203 121.2670269 65.61831284 C123.1701497 65.61718307 125.07326363 65.63084346 126.97633362 65.64506531 C135.00267323 65.60622676 142.40804502 64.98757764 148.99491882 60.01069641 C153.87926305 55.01276278 156.39669562 49.97509802 156.93241882 43.01069641 C156.48669951 36.32490674 154.25719915 30.79352783 149.58749199 25.90717411 C142.32130519 19.6273027 133.11366572 19.68808595 124.00614929 19.75898743 C122.65806008 19.75519608 121.30997478 19.74968935 119.9618988 19.74261475 C116.32966977 19.72875156 112.69791926 19.7397635 109.06571722 19.75632596 C105.24980721 19.77026312 101.43392255 19.76370679 97.61799622 19.76019287 C91.21442529 19.7574982 84.8110426 19.77090426 78.40751648 19.79414368 C71.01948059 19.82077155 63.63175879 19.82249055 56.24369133 19.81075531 C49.11347645 19.79995325 41.98337443 19.80618214 34.85316849 19.82031059 C31.82863297 19.8260471 28.80418067 19.82600627 25.77964401 19.82124519 C22.21554252 19.81645088 18.65178233 19.82667766 15.08774567 19.84819984 C13.16663235 19.85636021 11.24547418 19.84994348 9.32435608 19.84300232 C-0.38562397 19.92607554 -8.83239132 21.41279578 -15.31758118 29.26069641 Z " fill="#023C88" transform="translate(187.3175811767578,65.73930358886719)"/>
<path d="M0 0 C54.45 0 108.9 0 165 0 C170.90574866 21.26069519 170.90574866 21.26069519 173.3125 30.875 C173.57611328 31.90496094 173.83972656 32.93492187 174.11132812 33.99609375 C174.48354492 35.47916016 174.48354492 35.47916016 174.86328125 36.9921875 C175.08282471 37.86214355 175.30236816 38.73209961 175.52856445 39.62841797 C176 42 176 42 176 46 C114.29 46 52.58 46 -11 46 C-8.17975572 30.48865648 -3.92629257 15.26891555 0 0 Z " fill="#FCFCFD" transform="translate(247,266)"/>
<path d="M0 0 C18.48 0 36.96 0 56 0 C60.25 24.125 60.25 24.125 61.56347656 31.58642578 C61.92246741 33.62273169 62.2815151 35.65902758 62.640625 37.6953125 C62.83424622 38.79569855 63.02786743 39.89608459 63.22735596 41.02981567 C64.19193124 46.49533263 65.17222564 51.95710494 66.18945312 57.41308594 C66.37618591 58.41894745 66.5629187 59.42480896 66.75531006 60.46115112 C67.10607179 62.34333788 67.46053156 64.22484077 67.81939697 66.10549927 C67.97535339 66.94321869 68.13130981 67.78093811 68.29199219 68.64404297 C68.42933777 69.36848602 68.56668335 70.09292908 68.70819092 70.83932495 C69 73 69 73 69 78 C50.52 78 32.04 78 13 78 C11.96875 71.915625 10.9375 65.83125 9.875 59.5625 C8.03348108 48.7225015 6.18256077 37.88539836 4.19921875 27.0703125 C4.05937561 26.30764572 3.91953247 25.54497894 3.77545166 24.75920105 C3.11631057 21.17426428 2.45094615 17.59057847 1.77880859 14.00805664 C1.54371582 12.74082764 1.30862305 11.47359863 1.06640625 10.16796875 C0.85959229 9.06735107 0.65277832 7.9667334 0.43969727 6.83276367 C0 4 0 4 0 0 Z " fill="#FD9F00" transform="translate(191,414)"/>
<path d="M0 0 C13.53 0 27.06 0 41 0 C41 2.97 41 5.94 41 9 C42.65883377 12.89825936 44.12980752 14.43445339 48 16 C50.81496741 16.45275278 50.81496741 16.45275278 53.75 16.625 C54.73484375 16.69976562 55.7196875 16.77453125 56.734375 16.8515625 C57.48203125 16.90054687 58.2296875 16.94953125 59 17 C60.30896889 24.2142179 61.61322252 31.42927158 62.91151428 38.64541912 C63.51455258 41.99637492 64.11919238 45.34702498 64.72753906 48.69702148 C65.42734407 52.55105778 66.12009943 56.40634503 66.8125 60.26171875 C67.03123779 61.46084396 67.24997559 62.65996918 67.4753418 63.89543152 C67.67554932 65.01621597 67.87575684 66.13700043 68.08203125 67.29174805 C68.25968018 68.27547897 68.4373291 69.2592099 68.62036133 70.27275085 C68.98472829 72.89029107 69.07063081 75.36150721 69 78 C61.18547248 78.02526563 53.37095542 78.04283105 45.55639648 78.05493164 C42.89558519 78.05997383 40.23477668 78.06680736 37.57397461 78.07543945 C33.75894484 78.08751009 29.94395156 78.09322929 26.12890625 78.09765625 C24.93100967 78.10281754 23.7331131 78.10797882 22.49891663 78.11329651 C20.84731789 78.11340981 20.84731789 78.11340981 19.16235352 78.11352539 C18.18750504 78.115746 17.21265656 78.11796661 16.20826721 78.12025452 C14 78 14 78 13 77 C12.65179881 75.29238319 12.35977635 73.57328711 12.08984375 71.8515625 C11.90832764 70.72089355 11.72681152 69.59022461 11.53979492 68.42529297 C11.3410376 67.17119629 11.14228027 65.91709961 10.9375 64.625 C8.42224496 49.07351532 5.54080473 33.59802803 2.59155273 18.12353516 C2.2524383 16.32975319 1.91332683 14.53597067 1.57421875 12.7421875 C1.41507996 11.91736877 1.25594116 11.09255005 1.09197998 10.24273682 C0.43253099 6.74523454 0 3.57266271 0 0 Z " fill="#FD9F00" transform="translate(173,315)"/>
</svg>
