<?xml version="1.0" encoding="UTF-8"?>
<svg version="1.1" xmlns="http://www.w3.org/2000/svg" width="640" height="640">
<path d="M0 0 C211.2 0 422.4 0 640 0 C640 211.2 640 422.4 640 640 C428.8 640 217.6 640 0 640 C0 428.8 0 217.6 0 0 Z " fill="#082C76" transform="translate(0,0)"/>
<path d="M0 0 C211.2 0 422.4 0 640 0 C640 211.2 640 422.4 640 640 C428.8 640 217.6 640 0 640 C0 428.8 0 217.6 0 0 Z M200 85 C199.12472656 85.81984375 198.24945313 86.6396875 197.34765625 87.484375 C192.3366638 92.45253845 187.73779812 97.58765288 183.3359375 103.1015625 C181.29093169 105.63901117 179.19401016 108.11970878 177.06494141 110.58666992 C144.9968793 147.85541917 117.54609997 193.99883989 102.984375 241.1015625 C102.14359006 243.57720704 101.18772041 245.91616308 100.16796875 248.3203125 C97.2983617 255.43297991 95.47848404 262.83907224 93.5625 270.25 C93.16456176 271.77490521 92.76661244 273.29980753 92.36865234 274.82470703 C87.62011567 293.10161161 83.39321176 311.25357382 81 330 C80.80927477 331.45168327 80.80927477 331.45168327 80.6146965 332.93269348 C77.67800486 355.96038777 77.55286247 378.83770292 77.59702349 402.01847267 C77.60474557 407.35667974 77.59754283 412.69487319 77.59286499 418.03308105 C77.58745463 426.96186159 77.59448533 435.89056689 77.60888672 444.81933594 C77.62532485 455.12977864 77.61982557 465.44004435 77.6034075 475.75048304 C77.58980019 484.65473269 77.58786568 493.55892911 77.59572351 502.46318579 C77.60038878 507.76034297 77.60105401 513.05741672 77.59111404 518.35456848 C77.58245349 523.31255575 77.58844944 528.2703129 77.60579681 533.2282753 C77.60976134 535.04474124 77.60862818 536.86122658 77.60200882 538.67768478 C77.59380496 541.15717003 77.6040991 543.63591812 77.61904907 546.11535645 C77.61235691 546.83225977 77.60566474 547.5491631 77.59876978 548.28779078 C77.65292985 552.9208087 78.36520812 556.16463071 81 560 C85.64357871 562.91995645 89.64015176 563.42907383 94.9992218 563.37752342 C95.79112943 563.38188374 96.58303705 563.38624407 97.39894187 563.39073652 C100.05690662 563.40169925 102.71435334 563.39126606 105.37231445 563.38095093 C107.2953763 563.38440708 109.21843617 563.38917136 111.14149189 563.39513266 C116.42953927 563.40767804 121.71742463 563.40145616 127.00547266 563.39217401 C132.70697799 563.38539835 138.40845508 563.39585737 144.10995483 563.40411377 C155.28062489 563.41746915 166.45123455 563.41456532 177.621907 563.40587585 C186.69875889 563.39910681 195.77559382 563.3981792 204.85244751 563.4014473 C206.14322057 563.401907 207.43399363 563.40236669 208.76388103 563.40284032 C211.38587944 563.40379948 214.00787785 563.40477212 216.62987626 563.4057581 C240.52763239 563.41407318 264.42535416 563.40544312 288.32310481 563.38973031 C310.14217868 563.37549333 331.96120003 563.3767672 353.78027344 563.39111328 C378.29023645 563.40717473 402.80016572 563.41349326 427.31013393 563.40427649 C429.92260678 563.40332082 432.53507963 563.40237771 435.14755249 563.4014473 C436.43301368 563.40098447 437.71847486 563.40052164 439.04288942 563.40004479 C448.1111705 563.39745211 457.17943298 563.4018319 466.24771118 563.40888596 C477.29556243 563.41729079 488.34334972 563.41504221 499.39119363 563.39904372 C505.03035647 563.39114734 510.66941257 563.38809271 516.30857468 563.39799118 C521.4677032 563.40691023 526.62662574 563.40205129 531.78573549 563.38605852 C533.65509664 563.38269888 535.52447508 563.38443123 537.39382517 563.39168589 C539.92972553 563.40077473 542.46491525 563.39148614 545.0007782 563.37752342 C545.73092601 563.38454692 546.46107382 563.39157042 547.21334732 563.39880675 C552.70601969 563.3381333 556.77355143 562.0375481 560.85161114 558.30548668 C562.51682891 554.96242273 562.41024349 551.764266 562.3742218 548.11221313 C562.37819621 547.31169096 562.38217061 546.51116879 562.38626546 545.68638837 C562.39590054 542.99989281 562.38406227 540.31392232 562.37231445 537.62744141 C562.37474236 535.70197859 562.37846168 533.77651703 562.38337708 531.85105896 C562.3928011 526.61231543 562.38334181 521.37375832 562.37004495 516.13502932 C562.3587201 510.63733171 562.36283952 505.13964317 562.36479187 499.64193726 C562.36567586 490.38951587 562.35458377 481.13716758 562.33618164 471.88476562 C562.31512492 461.23779959 562.3114795 450.5909415 562.3177436 439.94395888 C562.32347705 429.66787984 562.31773785 419.39183826 562.30657005 409.11576462 C562.30196488 404.76309887 562.30103247 400.41045635 562.3031559 396.05778885 C562.30506585 390.90150976 562.29673141 385.74533746 562.2810955 380.58908272 C562.27691705 378.71485779 562.27595751 376.84062188 562.27878571 374.96639442 C562.30247856 356.42621471 560.80643194 338.10401242 557.75 319.8125 C557.64362213 319.16800903 557.53724426 318.52351807 557.42764282 317.85949707 C543.97138318 236.68002188 508.39949984 161.70451866 454 100 C453.20980469 99.09765625 452.41960937 98.1953125 451.60546875 97.265625 C441.33792389 84.08996638 441.33792389 84.08996638 427.04748154 77.73435116 C425.40068885 77.71682586 423.75375724 77.71035243 422.10687256 77.71238708 C420.74426453 77.70241537 420.74426453 77.70241537 419.35412908 77.69224221 C416.30343889 77.67252257 413.25289532 77.66716712 410.20214844 77.66186523 C408.01751826 77.65097213 405.83289184 77.63930065 403.64826965 77.62690735 C397.70808407 77.59637581 391.76793726 77.57937776 385.82768917 77.56669116 C382.11692399 77.55861019 378.40617 77.54842978 374.69541168 77.53767586 C363.08657714 77.50495051 351.4777697 77.48105191 339.86889529 77.468862 C338.53320232 77.46745002 337.19750936 77.4660292 335.86181641 77.46459961 C335.1992698 77.46389444 334.5367232 77.46318927 333.85409942 77.46246273 C323.78914034 77.45097741 313.72449309 77.41432084 303.65966797 77.36206055 C291.9678744 77.30155198 280.27633049 77.26528893 268.58437562 77.26003987 C262.3967839 77.25663979 256.20972429 77.24175046 250.0222702 77.19875908 C244.20098054 77.15902057 238.38059474 77.15259794 232.55920982 77.17165947 C230.42428778 77.17292611 228.28931967 77.16224195 226.15452766 77.13864517 C223.23562667 77.10822629 220.31995548 77.12116982 217.40106201 77.14476013 C216.55941175 77.12573448 215.71776149 77.10670883 214.85060668 77.08710665 C207.97880655 77.2190258 204.64925861 80.16990808 200 85 Z " fill="#FEFEFE" transform="translate(0,0)"/>
<path d="M0 0 C1.75781044 -0.02590714 1.75781044 -0.02590714 3.5511322 -0.05233765 C4.84870956 -0.06602386 6.14628693 -0.07971008 7.48318481 -0.09381104 C8.85463317 -0.11152571 10.22607784 -0.12952765 11.59751892 -0.14779663 C24.15284591 -0.30721738 36.70928489 -0.39124697 49.26540947 -0.45779037 C58.542943 -0.50794841 67.81869904 -0.59371314 77.09542644 -0.72641158 C83.62121784 -0.81660036 90.14652394 -0.86426973 96.67291081 -0.88136888 C100.56818306 -0.89280389 104.46118599 -0.92287168 108.35577011 -0.99932098 C112.02889327 -1.07064109 115.69864526 -1.08888088 119.37236595 -1.06820297 C121.34706413 -1.07029154 123.32147625 -1.12677063 125.29530334 -1.18545532 C131.57988278 -1.09869945 135.55144585 -0.47618304 140.2641679 3.94320464 C142.50632757 6.2619056 144.56716922 8.69164625 146.6008606 11.1942749 C147.42990339 12.18417545 148.25894619 13.174076 149.1131115 14.19397354 C150.59309279 15.98015835 152.05458303 17.78179107 153.4992981 19.59661865 C155.39770264 21.94315958 157.36800767 24.16387163 159.4133606 26.3817749 C201.69977567 73.60858303 230.07999191 137.82483773 243.6008606 199.1942749 C243.82080688 200.16590576 244.04075317 201.13753662 244.2673645 202.13861084 C251.72036639 235.57049167 253.21433689 269.26637818 253.00643635 303.39448118 C252.98082591 308.33770016 252.97903515 313.28093756 252.97433472 318.22421265 C252.96207512 327.51619071 252.92949334 336.80797256 252.88893676 346.09986556 C252.83515639 358.70460044 252.81413551 371.3093919 252.79092789 383.91421318 C252.75371198 403.67437972 252.67391103 423.43413294 252.6008606 443.1942749 C224.2208606 443.1942749 195.8408606 443.1942749 166.6008606 443.1942749 C167.23754189 438.73750584 167.90312205 434.3456214 168.70817566 429.92366028 C168.92831833 428.7108136 169.148461 427.49796692 169.37527466 426.24836731 C169.61719335 424.92312172 169.85913755 423.59788078 170.10110474 422.27264404 C170.3575201 420.86278309 170.61381889 419.45290092 170.87001038 418.04299927 C171.56296205 414.23133607 172.2575371 410.41997031 172.95241094 406.60865712 C173.67939155 402.6196636 174.40486917 398.63039676 175.13050842 394.64115906 C176.50355533 387.09405644 177.87794758 379.54719948 179.25282711 372.00043052 C180.81855749 363.40570047 182.38278215 354.81069659 183.94688237 346.21566975 C187.16320352 328.54156695 190.38140899 310.86780773 193.6008606 293.1942749 C194.73757202 293.12297363 194.73757202 293.12297363 195.89724731 293.05023193 C196.88998657 292.97659424 197.88272583 292.90295654 198.9055481 292.8270874 C199.89023071 292.75892822 200.87491333 292.69076904 201.88943481 292.62054443 C204.84477934 292.35368877 204.84477934 292.35368877 207.7258606 290.0692749 C210.44415053 285.90123033 210.95934734 282.47506923 210.19888306 277.63677979 C209.51921598 274.57834378 208.75590893 271.55273269 207.9602356 268.5223999 C207.67738708 267.40419861 207.39453857 266.28599731 207.1031189 265.13391113 C206.19782121 261.56747955 205.2745349 258.00598613 204.3508606 254.4442749 C203.74422304 252.06436419 203.13874228 249.6841583 202.53445435 247.3036499 C200.47575098 239.20827729 200.47575098 239.20827729 198.35708618 231.128479 C197.84733111 229.1505964 197.37805793 227.16189349 196.94717407 225.16534424 C196.7262207 224.2013269 196.50526733 223.23730957 196.27761841 222.24407959 C196.00730804 220.96485626 196.00730804 220.96485626 195.73153687 219.65979004 C194.15694818 216.22629422 191.77586844 214.13115923 188.6008606 212.1942749 C185.06012972 211.45269705 185.06012972 211.45269705 181.19337463 211.56608582 C180.46898715 211.55899143 179.74459966 211.55189704 178.99826103 211.54458767 C176.58196256 211.52704897 174.1672816 211.54508944 171.75100708 211.56317139 C170.01440704 211.55803099 168.27781221 211.55074881 166.54122925 211.54148865 C161.83252456 211.52298302 157.1243865 211.53590732 152.41570544 211.55557895 C147.48661823 211.57197106 142.55756674 211.56315189 137.62846375 211.55805969 C129.35232496 211.55353979 121.07641227 211.56940322 112.80032349 211.59735107 C103.23215246 211.62941307 93.66438896 211.6293828 84.09618896 211.6121363 C74.89001762 211.59627371 65.68399569 211.60300238 56.47783089 211.62007332 C52.56044602 211.62694569 48.64318084 211.62590948 44.72579765 211.61852837 C40.11358215 211.61086817 35.5018306 211.62298288 30.88969421 211.65037727 C29.19700561 211.65726459 27.50427371 211.65735535 25.81158638 211.65016174 C23.50099393 211.64147351 21.19183546 211.65741026 18.88136292 211.67961121 C16.94207743 211.68382159 16.94207743 211.68382159 14.96361446 211.68811703 C11.03743715 212.27908076 9.38928053 213.4236893 6.6008606 216.1942749 C5.55176716 218.15273787 5.55176716 218.15273787 5.13113403 220.30438232 C4.93453186 221.10168259 4.73792969 221.89898285 4.53536987 222.72044373 C4.34557556 223.5716127 4.15578125 224.42278168 3.9602356 225.29974365 C3.74772156 226.17955399 3.53520752 227.05936432 3.31625366 227.96583557 C2.64318036 230.76723507 1.99626415 233.57388468 1.3508606 236.3817749 C0.68586892 239.19887346 0.01562408 242.01465464 -0.65737915 244.82984924 C-1.07390592 246.58016822 -1.48473958 248.33185331 -1.88943481 250.08494568 C-3.29094318 256.08607867 -3.29094318 256.08607867 -4.3991394 257.1942749 C-7.35160295 257.28954296 -10.28062362 257.31979942 -13.23336792 257.30780029 C-14.16010315 257.30794632 -15.08683838 257.30809235 -16.04165649 257.3082428 C-19.12047628 257.30754329 -22.19923638 257.29974912 -25.27804565 257.29193115 C-27.40653958 257.29006711 -29.53503393 257.28864314 -31.66352844 257.28764343 C-37.27776261 257.28381718 -42.89197108 257.27398598 -48.50619507 257.26293945 C-54.23027194 257.25272764 -59.95435294 257.24814631 -65.67843628 257.24310303 C-76.91868197 257.23236381 -88.15890855 257.2152861 -99.3991394 257.1942749 C-98.72612368 253.09993567 -98.05055607 249.00602753 -97.37277222 244.91247559 C-97.14325465 243.52415951 -96.91439611 242.13573429 -96.68624878 240.74719238 C-94.16341094 225.39854575 -90.87070048 210.5066921 -86.61398315 195.5536499 C-85.46729336 191.49682074 -84.45188079 187.41655938 -83.4616394 183.3192749 C-78.21292774 161.94024692 -71.27597406 140.73853372 -63.3991394 120.1942749 C-63.08589722 119.3589624 -62.77265503 118.5236499 -62.44992065 117.6630249 C-61.7663269 115.84010824 -61.08273315 114.01719157 -60.3991394 112.1942749 C-56.52548673 114.02962742 -53.06840436 116.36340478 -49.52023315 118.7567749 C-41.01067635 122.67607015 -31.43568413 122.4883339 -22.23947144 122.46893311 C-20.97127563 122.47404404 -19.70307983 122.47915497 -18.39645386 122.48442078 C-14.95003135 122.49769242 -11.50371929 122.49840281 -8.05727625 122.49585748 C-5.16501881 122.49477967 -2.27278299 122.49969164 0.61946976 122.5044629 C7.45068586 122.51551715 14.28184694 122.51601859 21.11306763 122.50994873 C28.12667252 122.50391201 35.14007664 122.51622161 42.1536473 122.5375188 C48.20668899 122.55521366 54.25966722 122.56112381 60.31273377 122.55788106 C63.91412016 122.55608058 67.5153633 122.5585793 71.11672592 122.5725956 C75.13874822 122.58766666 79.16036952 122.57813539 83.18240356 122.56658936 C84.35268097 122.57423309 85.52295837 122.58187683 86.72869873 122.5897522 C100.56797105 122.50250673 111.39245172 119.93684453 121.59695435 110.3114624 C130.70236129 100.63819137 133.00494902 90.53476645 132.80789185 77.6552124 C132.46143596 67.38056366 127.85115525 59.38410551 120.56570435 52.18255615 C108.86926256 42.39660395 96.22074799 41.06534321 81.5852356 40.98895264 C80.40388535 40.97905304 79.2225351 40.96915344 78.00538635 40.95895386 C74.12056446 40.92749583 70.23573037 40.9026437 66.3508606 40.87786865 C63.64943714 40.85780618 60.94802538 40.83633471 58.24661255 40.81489563 C51.87557022 40.7651369 45.50450366 40.72013625 39.13341427 40.67687327 C31.87578083 40.6273564 24.61819084 40.57249222 17.36059952 40.51719368 C2.4407271 40.40363211 -12.47918632 40.29673765 -27.3991394 40.1942749 C-25.34879307 35.00154338 -22.86587662 30.13567845 -20.2741394 25.1942749 C-19.78639038 24.26324951 -19.29864136 23.33222412 -18.79611206 22.37298584 C-7.01478898 0.09150551 -7.01478898 0.09150551 0 0 Z " fill="#FBDFBD" transform="translate(289.3991394042969,98.80572509765625)"/>
<path d="M0 0 C2.0505614 0.00254083 4.10113097 0.00110944 6.15168762 -0.00398254 C11.70128709 -0.00655909 17.24912678 0.04625726 22.79831815 0.10918307 C28.60381158 0.16554265 34.40934784 0.17073932 40.21507263 0.18141174 C51.201194 0.20935633 62.18650687 0.28317285 73.17227262 0.37355715 C85.68240696 0.47424314 98.19258044 0.52366041 110.70301926 0.56881607 C136.43063446 0.66282463 162.15753262 0.82107175 187.88452148 1.02172852 C187.88452148 1.35172852 187.88452148 1.68172852 187.88452148 2.02172852 C187.17313869 2.00936818 186.46175589 1.99700785 185.72881603 1.98427296 C168.38373213 1.68948916 151.04069492 1.5006948 133.69325542 1.42844868 C125.30362445 1.39097823 116.91712262 1.31824094 108.52880859 1.16113281 C101.21337433 1.02421003 93.9008704 0.95482659 86.58410865 0.96501416 C82.71166337 0.96808636 78.84598285 0.93840188 74.97498131 0.82766151 C59.56430581 -0.22781293 59.56430581 -0.22781293 45.65213394 4.66415024 C41.86249781 8.96676786 39.89872582 13.90254948 37.97432899 19.24313927 C36.04623703 24.15903088 33.31798554 28.63713848 30.69702148 33.20922852 C29.76168347 34.90866537 28.83027818 36.61027676 27.90405273 38.31469727 C27.5132251 39.03165771 27.12239746 39.74861816 26.71972656 40.48730469 C26.44410889 40.99366455 26.16849121 41.50002441 25.88452148 42.02172852 C26.806097 42.01896314 26.806097 42.01896314 27.74629021 42.01614189 C42.72942486 41.97187893 57.7125393 41.93883124 72.69572258 41.91810417 C79.94162222 41.90781304 87.18747808 41.89379432 94.43334961 41.87084961 C100.75244971 41.85084923 107.07151809 41.83799637 113.39064896 41.83355153 C116.73333005 41.83095533 120.0758489 41.8238326 123.41851425 41.8102684 C127.15967886 41.79569456 130.90065716 41.79375307 134.6418457 41.79467773 C136.28507561 41.78389191 136.28507561 41.78389191 137.96150208 41.77288818 C152.61619879 41.81193476 165.906232 45.13796327 176.68920898 55.55688477 C186.11193661 66.13649532 187.77313548 77.28099776 187.07543945 90.93383789 C186.14472212 101.11221977 179.17009436 109.1981447 171.88452148 115.83422852 C161.17430111 124.6809115 150.32164844 125.32737626 136.69311523 125.28051758 C135.42170685 125.28402222 134.15029846 125.28752686 132.84036255 125.2911377 C129.38580042 125.30017427 125.93135915 125.29675394 122.4767952 125.29037952 C118.84113518 125.28527387 115.20548469 125.29002355 111.56982422 125.29315186 C105.46734787 125.2967783 99.36492012 125.29202725 93.26245117 125.2824707 C86.23294015 125.2715887 79.20354519 125.27511521 72.17403698 125.28612351 C66.11083841 125.29523421 60.04767453 125.29646326 53.98447132 125.29124618 C50.37536025 125.28814718 46.76630351 125.28765958 43.15719604 125.29431915 C39.13003804 125.30123266 35.1030764 125.29161842 31.07592773 125.28051758 C29.3097258 125.28659027 29.3097258 125.28659027 27.50784302 125.29278564 C18.61080135 125.24757751 9.09017563 125.14959037 1.44702148 120.08422852 C0.66456055 119.58020508 -0.11790039 119.07618164 -0.92407227 118.55688477 C-3.02232284 117.0869873 -5.07894465 115.57580333 -7.11547852 114.02172852 C-7.29723633 114.63918945 -7.47899414 115.25665039 -7.66625977 115.89282227 C-9.74914955 122.91055862 -11.9640691 129.85118084 -14.46313477 136.73266602 C-17.91897309 146.26410925 -20.83022184 155.83337241 -23.45922852 165.62231445 C-24.38516686 169.00777654 -25.36716726 172.3762304 -26.34643555 175.74658203 C-29.32950143 186.02632176 -32.01917299 196.35515091 -34.55395508 206.75366211 C-35.06387312 208.81328759 -35.59479183 210.86545252 -36.13891602 212.91625977 C-39.76898396 226.78311931 -42.8337211 241.01749327 -44.69750977 255.23657227 C-45.11547852 258.02172852 -45.11547852 258.02172852 -46.11547852 259.02172852 C-49.3495903 259.18617488 -52.58117712 259.27660857 -55.81860352 259.34985352 C-60.14077029 260.23067423 -61.3035299 261.63685544 -64.11547852 265.02172852 C-65.54039402 267.91910193 -66.53292541 270.91609663 -67.52880859 273.98364258 C-67.83189941 274.87699814 -68.13499023 275.7703537 -68.44726562 276.69078064 C-69.44154902 279.63483121 -70.41385515 282.58560017 -71.38500977 285.53735352 C-72.0719708 287.59403732 -72.75986649 289.65040916 -73.44865417 291.70648193 C-74.8878939 296.01397997 -76.31639463 300.32484979 -77.73730469 304.63842773 C-79.55492992 310.15378747 -81.39786266 315.66028265 -83.2488451 321.16452408 C-84.67343227 325.40957475 -86.08493363 329.65888747 -87.49252892 333.9095993 C-88.16682126 335.94096671 -88.84501059 337.971045 -89.52723122 339.99976349 C-90.48108775 342.84308013 -91.41726331 345.69164619 -92.34912109 348.54223633 C-92.7721476 349.78634529 -92.7721476 349.78634529 -93.20372009 351.05558777 C-95.93033647 359.52381963 -95.75979981 366.52898606 -92.82055664 374.88061523 C-92.45479774 375.97263496 -92.45479774 375.97263496 -92.08164978 377.0867157 C-91.28252843 379.46272805 -90.46468537 381.83182961 -89.64672852 384.20141602 C-89.08490722 385.86244028 -88.52442215 387.52391705 -87.96520996 389.18582153 C-86.4972557 393.5385644 -85.01392713 397.88589782 -83.52642822 402.23199463 C-81.14189795 409.20728489 -78.78056139 416.1904534 -76.42002869 423.17389297 C-75.5939604 425.61021381 -74.76107499 428.04412047 -73.92712402 430.47775269 C-73.42140308 431.96485501 -72.91582091 433.45200453 -72.41040039 434.93920898 C-72.17663193 435.61558914 -71.94286346 436.2919693 -71.70201111 436.98884583 C-70.74876819 439.80832275 -70.11547852 442.02063947 -70.11547852 445.02172852 C-92.55547852 445.02172852 -114.99547852 445.02172852 -138.11547852 445.02172852 C-138.18344498 421.29794809 -138.23860469 397.57424764 -138.27091503 373.85039425 C-138.28632228 362.83268156 -138.30729296 351.81503409 -138.34179688 340.79736328 C-138.37188877 331.1838619 -138.39109802 321.57040778 -138.397744 311.9568606 C-138.40162306 306.87610264 -138.410608 301.7954798 -138.43266869 296.71476555 C-138.52832678 273.77598692 -138.15198869 251.72680864 -133.54832554 229.16596889 C-133.04388745 226.66708024 -132.60141511 224.16183931 -132.18579102 221.64672852 C-129.61600625 206.34409213 -126.95004114 191.14234854 -122.17407227 176.34985352 C-121.39713645 173.9072361 -120.66194598 171.47085314 -119.96313477 169.00610352 C-117.16158256 159.13385933 -113.88795067 149.56794445 -110.11547852 140.02172852 C-109.80682861 139.23725342 -109.49817871 138.45277832 -109.18017578 137.64453125 C-96.31373506 105.17596622 -79.81527369 73.30774338 -58.37133789 45.64672852 C-57.07654489 43.97135095 -55.80532609 42.27997398 -54.53735352 40.58422852 C-50.0625166 34.63285758 -45.38162144 28.96399158 -40.33032227 23.48657227 C-37.28347906 20.09581731 -34.46369266 16.5380088 -31.64672852 12.95532227 C-30.39375977 11.50319336 -30.39375977 11.50319336 -29.11547852 10.02172852 C-28.61758851 9.28935502 -28.11969851 8.55698153 -27.60672092 7.80241489 C-20.20945462 -1.58057401 -10.9372024 -0.18962517 0 0 Z " fill="#F4AE73" transform="translate(236.115478515625,96.978271484375)"/>
<path d="M0 0 C47.85 0 95.7 0 145 0 C143.87500351 13.49995786 143.87500351 13.49995786 142.9753418 18.41390991 C142.7734726 19.53240326 142.57160339 20.65089661 142.36361694 21.80328369 C142.14436554 22.9850116 141.92511414 24.1667395 141.69921875 25.38427734 C141.46659332 26.66386322 141.2339679 27.9434491 140.99429321 29.2618103 C140.36304393 32.7334139 139.72481088 36.20369941 139.08523941 39.67377806 C138.41419104 43.32167799 137.74981598 46.97079309 137.0847168 50.61978149 C135.82615438 57.51918786 134.56184388 64.41752729 133.29534054 71.31547987 C131.71547167 79.92167159 130.1428014 88.52917609 128.5703125 97.13671875 C128.01869325 100.15598579 127.46702236 103.17524339 126.9152832 106.19448853 C126.71477151 107.29174238 126.71477151 107.29174238 126.51020908 108.41116297 C125.59068045 113.4419133 124.66918666 118.47230115 123.74682617 123.50253296 C123.49977653 124.85049258 123.25273651 126.19845396 123.00570679 127.54641724 C122.54966637 130.03431423 122.09325034 132.52214241 121.63638306 135.0098877 C121.43451385 136.1114621 121.23264465 137.2130365 121.0246582 138.34799194 C120.84989456 139.30028875 120.67513092 140.25258556 120.49507141 141.23373985 C119.97285818 144.15165759 119.48732448 147.0760531 119 150 C88.64 150 58.28 150 27 150 C21.95280173 123.32195201 17.00749347 96.63805333 12.32446289 69.89428711 C9.44724306 53.47101673 6.48656322 37.06407519 3.47436523 20.66503906 C3.3146373 19.79282715 3.15490936 18.92061523 2.99034119 18.02197266 C2.69586679 16.4143286 2.40028094 14.8068875 2.10328674 13.19970703 C1.90617348 12.12293701 1.90617348 12.12293701 1.70507812 11.02441406 C1.59232544 10.41212952 1.47957275 9.79984497 1.36340332 9.16900635 C0.8528201 6.12154312 0.43698346 3.05888424 0 0 Z " fill="#FDFDFE" transform="translate(317,392)"/>
<path d="M0 0 C1.17870163 -0.01004562 2.35740326 -0.02009125 3.57182312 -0.03044128 C4.86684753 -0.03627228 6.16187195 -0.04210327 7.49613953 -0.04811096 C8.87286618 -0.05765157 10.24959045 -0.06754283 11.62631226 -0.07775879 C16.15279802 -0.10914513 20.67930208 -0.12942306 25.20585632 -0.14796448 C25.9775024 -0.1512618 26.74914848 -0.15455912 27.54417777 -0.15795636 C34.8318022 -0.18875764 42.11943089 -0.21544879 49.40710163 -0.23237514 C58.70438318 -0.25422592 68.00108309 -0.29606755 77.29813224 -0.36581272 C83.84697378 -0.41325551 90.39565964 -0.43733625 96.94466752 -0.44457203 C100.84880266 -0.44950137 104.75228244 -0.46431732 108.65622902 -0.50431633 C112.3394222 -0.54155281 116.02159596 -0.54947386 119.7049427 -0.5363102 C121.67756981 -0.53638871 123.65012923 -0.56600532 125.62251282 -0.59700012 C138.37057997 -0.49485342 148.99764518 3.7233129 158.21757507 12.73094177 C167.53397865 23.38315322 169.23168784 34.41013845 168.53349304 48.07273865 C167.60277571 58.25112053 160.62814795 66.33704545 153.34257507 72.97312927 C142.6323547 81.81981226 131.77970203 82.46627702 118.15116882 82.41941833 C116.87976044 82.42292297 115.60835205 82.42642761 114.29841614 82.43003845 C110.84385401 82.43907502 107.38941274 82.43565469 103.93484879 82.42928028 C100.29918877 82.42417462 96.66353828 82.42892431 93.02787781 82.43205261 C86.92540146 82.43567906 80.82297371 82.43092801 74.72050476 82.42137146 C67.69099374 82.41048945 60.66159878 82.41401597 53.63209057 82.42502427 C47.568892 82.43413497 41.50572812 82.43536402 35.44252491 82.43014693 C31.83341383 82.42704794 28.2243571 82.42656033 24.61524963 82.43321991 C20.58809163 82.44013342 16.56112998 82.43051917 12.53398132 82.41941833 C10.76777939 82.42549103 10.76777939 82.42549103 8.96589661 82.4316864 C-5.03321278 82.36055336 -15.37377921 80.12984169 -25.90742493 70.53562927 C-34.62673821 61.35740476 -38.22684193 49.49959346 -38.03242493 37.11766052 C-36.99351437 26.15498979 -31.82403134 16.78497786 -23.74726868 9.41844177 C-16.88745209 3.93604362 -8.83458844 0.05915322 0 0 Z " fill="#082C76" transform="translate(254.6574249267578,139.83937072753906)"/>
<path d="M0 0 C48.18 0 96.36 0 146 0 C147.98 11.55 149.96 23.1 152 35 C153.23795764 41.84442834 154.48332079 48.68577378 155.76611328 55.52172852 C156.14655844 57.55430509 156.52274337 59.58763457 156.8984375 61.62109375 C157.11161621 62.7598999 157.32479492 63.89870605 157.54443359 65.07202148 C158 68 158 68 158 72 C113.45 72 68.9 72 23 72 C19.205 60.676875 15.41 49.35375 11.5 37.6875 C10.29923828 34.11252686 9.09847656 30.53755371 7.86132812 26.85424805 C6.40136719 22.48791504 6.40136719 22.48791504 5.71911621 20.44367981 C5.24160592 19.01575667 4.76231234 17.58842913 4.28161621 16.16157532 C3.55398998 14.00061538 2.83203862 11.83783515 2.11132812 9.67456055 C1.7027356 8.45544479 1.29414307 7.23632904 0.87316895 5.98027039 C0 3 0 3 0 0 Z " fill="#FCCA4F" transform="translate(165,470)"/>
<path d="M0 0 C30.36 0 60.72 0 92 0 C92 2.31 92 4.62 92 7 C93.65139305 10.5386994 94.71605229 11.81070153 98 14 C100.50896686 14.45601261 100.50896686 14.45601261 103.1875 14.625 C104.08855469 14.69976562 104.98960937 14.77453125 105.91796875 14.8515625 C106.60503906 14.90054687 107.29210937 14.94953125 108 15 C109.72773765 20.6427585 110.89225942 26.29420738 111.9453125 32.09765625 C112.2074202 33.5263932 112.2074202 33.5263932 112.474823 34.98399353 C112.84128663 36.98810758 113.20592964 38.99255531 113.56884766 40.99731445 C114.12406986 44.05737362 114.68866903 47.11560505 115.25390625 50.17382812 C115.6099457 52.12750025 115.96543324 54.08127305 116.3203125 56.03515625 C116.48902863 56.94467545 116.65774475 57.85419464 116.83157349 58.79127502 C116.98528412 59.64914108 117.13899475 60.50700714 117.29736328 61.39086914 C117.43345001 62.13808731 117.56953674 62.88530548 117.70974731 63.65516663 C118.05166473 66.41737836 118 69.21670677 118 72 C71.47 72 24.94 72 -23 72 C-21.77042765 66.46692444 -20.62039297 61.4885212 -18.84521484 56.19506836 C-18.63681787 55.56951585 -18.42842091 54.94396334 -18.21370888 54.29945469 C-17.55031638 52.31148369 -16.88080419 50.32564122 -16.2109375 48.33984375 C-15.80012939 47.11044067 -15.38932129 45.8810376 -14.96606445 44.61437988 C-13.440655 40.05376284 -11.90736753 35.49578384 -10.375 30.9375 C-6.95125 20.728125 -3.5275 10.51875 0 0 Z " fill="#FCCA4F" transform="translate(188,377)"/>
<path d="M0 0 C51.15 0 102.3 0 155 0 C160.90625 21.2625 160.90625 21.2625 162.8125 28.875 C163.02841797 29.71417969 163.24433594 30.55335938 163.46679688 31.41796875 C163.77133789 32.63033203 163.77133789 32.63033203 164.08203125 33.8671875 C164.25968018 34.56956543 164.4373291 35.27194336 164.62036133 35.99560547 C165 38 165 38 165 42 C107.25 42 49.5 42 -10 42 C-8.68 36.72 -7.36 31.44 -6 26 C-4.02 17.42 -2.04 8.84 0 0 Z " fill="#FBFCFD" transform="translate(312,330)"/>
<path d="M0 0 C1.10178589 -0.0071553 2.20357178 -0.01431061 3.33874512 -0.02168274 C4.54811737 -0.02437164 5.75748962 -0.02706055 7.00350952 -0.02983093 C8.27696228 -0.03640213 9.55041504 -0.04297333 10.86245728 -0.04974365 C15.0883356 -0.07077041 19.31421422 -0.08114727 23.54013062 -0.09111023 C24.99701328 -0.09515882 26.45389576 -0.09927578 27.91077805 -0.10346031 C34.75851169 -0.12251187 41.60623458 -0.13674088 48.45398962 -0.14507228 C56.34610707 -0.15483379 64.23794322 -0.18112475 72.12996161 -0.22157317 C78.23712095 -0.25179398 84.34419996 -0.26654694 90.45143259 -0.26985329 C94.09535926 -0.27219773 97.73898544 -0.28107782 101.38283157 -0.30631447 C105.45448561 -0.33405774 109.52551679 -0.32974592 113.59725952 -0.32279968 C114.79448639 -0.33560974 115.99171326 -0.3484198 117.22521973 -0.36161804 C125.66062678 -0.30925935 131.39352247 1.47469817 138.50106812 5.89717102 C142.61785897 10.13158447 144.89084136 14.70290231 145.18856812 20.64717102 C144.83884838 27.2015958 142.18218303 32.06489027 137.37606812 36.45967102 C130.2021703 42.52187523 122.99683446 42.58535504 113.99545288 42.55122375 C112.0966185 42.56151863 112.0966185 42.56151863 110.15942383 42.57202148 C106.70272576 42.58989845 103.2462823 42.58879493 99.78955197 42.5830791 C96.8970143 42.57997929 94.00452498 42.58608848 91.11199421 42.59211785 C84.28485714 42.60614352 77.45784526 42.60461817 70.63070679 42.59321594 C63.60225126 42.58173643 56.57417739 42.59581175 49.54577214 42.62261242 C43.49712116 42.64480815 37.44858964 42.65139812 31.39990085 42.64553601 C27.79354675 42.64217446 24.18743724 42.64452764 20.58111763 42.66178703 C16.55752725 42.6802047 12.53467389 42.66602951 8.51107788 42.64888 C6.73329704 42.66338196 6.73329704 42.66338196 4.91960144 42.67817688 C-2.82977942 42.60909336 -8.29809185 41.61042005 -14.33486938 36.40107727 C-14.78088501 35.84291321 -15.22690063 35.28474915 -15.68643188 34.70967102 C-16.14791626 34.15408508 -16.60940063 33.59849915 -17.08486938 33.02607727 C-20.80027377 27.3346457 -21.03573528 21.75876103 -20.31143188 15.14717102 C-18.49878712 8.44726884 -14.15277748 4.61359582 -8.31143188 1.14717102 C-5.2636794 0.13125352 -3.19042081 0.01421772 0 0 Z " fill="#FAFBFC" transform="translate(258.3114318847656,159.8528289794922)"/>
<path d="M0 0 C17.16 0 34.32 0 52 0 C52.86625 5.094375 53.7325 10.18875 54.625 15.4375 C56.27971977 25.14445145 57.95542988 34.84619908 59.734375 44.53125 C59.87301971 45.28672623 60.01166443 46.04220245 60.1545105 46.8205719 C60.82075412 50.44388949 61.49240555 54.06612124 62.17041016 57.68725586 C62.41314788 58.99852369 62.65582689 60.30980239 62.8984375 61.62109375 C63.21820557 63.32930298 63.21820557 63.32930298 63.54443359 65.07202148 C64 68 64 68 64 72 C46.84 72 29.68 72 12 72 C9.0052089 55.76930182 9.0052089 55.76930182 7.734375 48.83203125 C6.86829462 44.10441086 6.00107616 39.37701977 5.12695312 34.65087891 C4.42203764 30.8391892 3.72233384 27.02657592 3.02618408 23.21327591 C2.76011297 21.76094326 2.49218778 20.30894898 2.22235107 18.85731125 C1.84379258 16.81899655 1.47193403 14.77956202 1.1015625 12.73974609 C0.88838379 11.58058685 0.67520508 10.42142761 0.45556641 9.22714233 C0 6 0 6 0 0 Z " fill="#FB8E01" transform="translate(259,470)"/>
<path d="M0 0 C12.54 0 25.08 0 38 0 C38 2.31 38 4.62 38 7 C39.65139305 10.5386994 40.71605229 11.81070153 44 14 C46.50896686 14.45601261 46.50896686 14.45601261 49.1875 14.625 C50.08855469 14.69976562 50.98960937 14.77453125 51.91796875 14.8515625 C52.60503906 14.90054687 53.29210937 14.94953125 54 15 C55.72773765 20.6427585 56.89225942 26.29420738 57.9453125 32.09765625 C58.12005096 33.05014755 58.29478943 34.00263885 58.474823 34.98399353 C58.84128663 36.98810758 59.20592964 38.99255531 59.56884766 40.99731445 C60.12406986 44.05737362 60.68866903 47.11560505 61.25390625 50.17382812 C61.6099457 52.12750025 61.96543324 54.08127305 62.3203125 56.03515625 C62.57338669 57.39943504 62.57338669 57.39943504 62.83157349 58.79127502 C62.98528412 59.64914108 63.13899475 60.50700714 63.29736328 61.39086914 C63.43345001 62.13808731 63.56953674 62.88530548 63.70974731 63.65516663 C64.05166473 66.41737836 64 69.21670677 64 72 C47.17 72 30.34 72 13 72 C11.68899664 67.41148823 10.58734625 63.20870035 9.76318359 58.56152344 C9.54310638 57.33044861 9.32302917 56.09937378 9.09628296 54.83099365 C8.86351259 53.50714805 8.63090117 52.18327449 8.3984375 50.859375 C8.15492 49.48646744 7.91115163 48.11360436 7.66714478 46.74078369 C7.1589112 43.87674796 6.65320744 41.01228096 6.14941406 38.14746094 C5.50361205 34.47589825 4.8522168 30.80535477 4.19904137 27.1350975 C3.69609413 24.3061952 3.19570161 21.47684582 2.69612503 18.6473465 C2.45680124 17.29323223 2.21677247 15.93924236 1.97602463 14.58538055 C1.64081972 12.69766897 1.30933614 10.80929772 0.97802734 8.92089844 C0.78864594 7.84725037 0.59926453 6.77360229 0.40414429 5.66741943 C0 3 0 3 0 0 Z " fill="#FA8E02" transform="translate(242,377)"/>
<path d="M0 0 C1.76462683 3.08809695 2 4.23312136 2 8 C-55.75 8 -113.5 8 -173 8 C-172.67 7.34 -172.34 6.68 -172 6 C-115.57 6 -59.14 6 -1 6 C-0.67 4.02 -0.34 2.04 0 0 Z " fill="#9DABC8" transform="translate(475,364)"/>
</svg>
